<svg width="86" height="55" viewBox="0 0 86 55" fill="none" xmlns="http://www.w3.org/2000/svg">
<path d="M18.252 6.89137C18.3 7.87537 18.36 8.99137 18.432 10.2394C18.528 11.4874 18.624 12.7834 18.72 14.1274C18.84 15.4474 18.96 16.7674 19.08 18.0874C19.2 19.4074 19.32 20.6314 19.44 21.7594C20.064 20.5354 20.7 19.2154 21.348 17.7994C21.996 16.3834 22.644 14.9194 23.292 13.4074C23.94 11.8954 24.576 10.3594 25.2 8.79937C25.848 7.23937 26.46 5.71537 27.036 4.22737H32.976C31.104 8.78737 29.196 13.1314 27.252 17.2594C25.308 21.3634 23.22 25.3354 20.988 29.1754H15.732C15.54 27.8554 15.36 26.5954 15.192 25.3954C15.048 24.1714 14.904 22.9714 14.76 21.7954C14.64 20.6194 14.52 19.4314 14.4 18.2314C14.304 17.0314 14.208 15.7834 14.112 14.4874C12.744 17.0314 11.388 19.5274 10.044 21.9754C8.724 24.3994 7.308 26.7994 5.796 29.1754H0.54C0.348 26.9434 0.204 24.7354 0.108 22.5514C0.036 20.3674 0 18.1474 0 15.8914C0 13.9474 0.036 12.0154 0.108 10.0954C0.18 8.15137 0.276 6.19537 0.396 4.22737L19.44 0C19.32 2.112 5.808 8.41537 5.688 10.4554C5.592 12.4714 5.544 14.5714 5.544 16.7554C5.544 17.5714 5.544 18.3994 5.544 19.2394C5.544 20.0794 5.568 20.9194 5.616 21.7594C6.288 20.5834 6.996 19.3354 7.74 18.0154C8.484 16.6954 9.216 15.3754 9.936 14.0554C10.656 12.7354 11.34 11.4634 11.988 10.2394C12.636 8.99137 13.188 7.87537 13.644 6.89137H18.252Z" fill="white"/>
<path d="M30.7997 23.5234C30.7997 21.7234 31.2677 20.1754 32.2037 18.8794C33.1397 17.5594 34.6517 16.4314 36.7397 15.4954L37.3517 15.2074C36.8717 14.4154 36.5117 13.6354 36.2717 12.8674C36.0557 12.0754 35.9477 11.3074 35.9477 10.5634C35.9477 9.60337 36.1277 8.70337 36.4877 7.86337C36.8717 6.99937 37.4117 6.26737 38.1077 5.66737C38.8277 5.04337 39.6797 4.55137 40.6637 4.19137C41.6717 3.83137 42.7997 3.65137 44.0477 3.65137C45.0797 3.65137 45.9917 3.79537 46.7837 4.08337C47.5757 4.34737 48.2237 4.70737 48.7277 5.16337C49.2557 5.61937 49.6517 6.15937 49.9157 6.78337C50.1797 7.38337 50.3117 8.01937 50.3117 8.69137C50.3117 9.29137 50.2037 9.91537 49.9877 10.5634C49.7717 11.2114 49.4477 11.8474 49.0157 12.4714C48.6077 13.0954 48.0797 13.6834 47.4317 14.2354C46.7837 14.7874 46.0277 15.2554 45.1637 15.6394L43.8317 16.2514L46.8557 20.2834C47.4557 19.2994 48.0077 18.0874 48.5117 16.6474L53.2277 17.2594C52.1957 19.8754 50.9837 22.0834 49.5917 23.8834C50.2157 24.7714 50.7677 25.6594 51.2477 26.5474C51.7517 27.4354 52.2077 28.3114 52.6157 29.1754H47.1797C47.0357 28.8634 46.8677 28.5394 46.6757 28.2034C46.5077 27.8674 46.3277 27.5194 46.1357 27.1594C43.8557 28.7194 41.2517 29.4994 38.3237 29.4994C37.0517 29.4994 35.9357 29.3314 34.9757 28.9954C34.0397 28.6594 33.2597 28.2154 32.6357 27.6634C32.0117 27.0874 31.5437 26.4514 31.2317 25.7554C30.9437 25.0354 30.7997 24.2914 30.7997 23.5234ZM39.0077 25.3234C39.6317 25.3234 40.3517 25.2274 41.1677 25.0354C41.9837 24.8194 42.8477 24.3994 43.7597 23.7754L39.5477 18.2314L39.0077 18.4834C37.9997 18.9394 37.2677 19.5394 36.8117 20.2834C36.3557 21.0274 36.1277 21.7594 36.1277 22.4794C36.1277 23.2474 36.3677 23.9194 36.8477 24.4954C37.3517 25.0474 38.0717 25.3234 39.0077 25.3234ZM40.6997 10.7074C40.6997 11.3794 41.0117 12.2314 41.6357 13.2634L42.0677 13.0834C43.2197 12.5554 44.1077 11.9914 44.7317 11.3914C45.3797 10.7674 45.7037 10.0354 45.7037 9.19537C45.7037 8.73937 45.5357 8.34337 45.1997 8.00737C44.8637 7.64737 44.3357 7.46737 43.6157 7.46737C42.8957 7.46737 42.2237 7.74337 41.5997 8.29537C40.9997 8.82337 40.6997 9.62737 40.6997 10.7074Z" fill="white"/>
<path d="M67.4699 4.22737C67.6139 4.87537 67.7939 5.79937 68.0099 6.99937C68.2499 8.17537 68.4899 9.48337 68.7299 10.9234C68.9939 12.3394 69.2579 13.8034 69.5219 15.3154C69.7859 16.8034 70.0259 18.1714 70.2419 19.4194C71.0579 18.1714 71.9459 16.8274 72.9059 15.3874C73.8659 13.9474 74.8139 12.5314 75.7499 11.1394C76.6859 9.74737 77.5739 8.45137 78.4139 7.25137C79.2539 6.02737 79.9739 5.01937 80.5739 4.22737H85.5419C85.3739 5.88337 85.1459 7.74337 84.8579 9.80737C84.5939 11.8714 84.2819 14.0074 83.9219 16.2154C83.5859 18.4234 83.2259 20.6434 82.8419 22.8754C82.4579 25.1074 82.0739 27.2074 81.6899 29.1754L68.0099 35.5C68.5139 33.052 77.2499 24.0874 77.8019 21.2554C78.3779 18.3994 78.9059 15.5194 79.3859 12.6154C78.7619 13.5994 78.0659 14.7034 77.2979 15.9274C76.5299 17.1274 75.7619 18.3514 74.9939 19.5994C74.2259 20.8234 73.4819 21.9994 72.7619 23.1274C72.0419 24.2554 71.4179 25.2154 70.8899 26.0074H66.7859C66.6659 25.2874 66.5219 24.3754 66.3539 23.2714C66.1859 22.1674 65.9939 21.0034 65.7779 19.7794C65.5859 18.5314 65.3819 17.2834 65.1659 16.0354C64.9499 14.7634 64.7459 13.6234 64.5539 12.6154C63.6179 15.5194 62.7659 18.3994 61.9979 21.2554C61.2539 24.0874 60.5579 26.7274 59.9099 29.1754H54.4739C55.0259 27.2074 55.6259 25.1074 56.2739 22.8754C56.9459 20.6434 57.6299 18.4234 58.3259 16.2154C59.0459 13.9834 59.7539 11.8354 60.4499 9.77137C61.1459 7.70737 61.8059 5.85937 62.4299 4.22737H67.4699Z" fill="white"/>
<path d="M12.0042 44.167C12.1582 44.167 12.2842 44.1553 12.3822 44.132C12.4849 44.104 12.5665 44.069 12.6272 44.027C12.6879 43.9803 12.7299 43.9267 12.7532 43.866C12.7765 43.8053 12.7882 43.7377 12.7882 43.663C12.7882 43.5043 12.7135 43.3737 12.5642 43.271C12.4149 43.1637 12.1582 43.0493 11.7942 42.928C11.6355 42.872 11.4769 42.809 11.3182 42.739C11.1595 42.6643 11.0172 42.5733 10.8912 42.466C10.7652 42.354 10.6625 42.221 10.5832 42.067C10.5039 41.9083 10.4642 41.717 10.4642 41.493C10.4642 41.269 10.5062 41.0683 10.5902 40.891C10.6742 40.709 10.7932 40.555 10.9472 40.429C11.1012 40.303 11.2879 40.2073 11.5072 40.142C11.7265 40.072 11.9739 40.037 12.2492 40.037C12.5759 40.037 12.8582 40.072 13.0962 40.142C13.3342 40.212 13.5302 40.289 13.6842 40.373L13.3692 41.234C13.2339 41.164 13.0822 41.1033 12.9142 41.052C12.7509 40.996 12.5525 40.968 12.3192 40.968C12.0579 40.968 11.8689 41.0053 11.7522 41.08C11.6402 41.15 11.5842 41.2597 11.5842 41.409C11.5842 41.4977 11.6052 41.5723 11.6472 41.633C11.6892 41.6937 11.7475 41.7497 11.8222 41.801C11.9015 41.8477 11.9902 41.892 12.0882 41.934C12.1909 41.9713 12.3029 42.011 12.4242 42.053C12.6762 42.1463 12.8955 42.2397 13.0822 42.333C13.2689 42.4217 13.4229 42.5267 13.5442 42.648C13.6702 42.7693 13.7635 42.9117 13.8242 43.075C13.8849 43.2383 13.9152 43.4367 13.9152 43.67C13.9152 44.1227 13.7565 44.475 13.4392 44.727C13.1219 44.9743 12.6435 45.098 12.0042 45.098C11.7895 45.098 11.5959 45.084 11.4232 45.056C11.2505 45.0327 11.0965 45.0023 10.9612 44.965C10.8305 44.9277 10.7162 44.888 10.6182 44.846C10.5249 44.804 10.4455 44.7643 10.3802 44.727L10.6882 43.859C10.8329 43.9383 11.0102 44.0107 11.2202 44.076C11.4349 44.1367 11.6962 44.167 12.0042 44.167ZM19.0884 45C18.9904 44.8413 18.8737 44.671 18.7384 44.489C18.6077 44.3023 18.4631 44.118 18.3044 43.936C18.1504 43.7493 17.9894 43.572 17.8214 43.404C17.6534 43.2313 17.4854 43.0797 17.3174 42.949V45H16.2254V40.149H17.3174V41.983C17.6021 41.6843 17.8867 41.374 18.1714 41.052C18.4607 40.7253 18.7291 40.4243 18.9764 40.149H20.2714C19.9401 40.541 19.6064 40.919 19.2704 41.283C18.9391 41.647 18.5891 42.0133 18.2204 42.382C18.6077 42.704 18.9811 43.0867 19.3404 43.53C19.7044 43.9733 20.0521 44.4633 20.3834 45H19.0884ZM25.9063 45C25.855 44.832 25.7966 44.6593 25.7313 44.482C25.6706 44.3047 25.61 44.1273 25.5493 43.95H23.6593C23.5986 44.1273 23.5356 44.3047 23.4703 44.482C23.4096 44.6593 23.3536 44.832 23.3023 45H22.1683C22.3503 44.4773 22.523 43.9943 22.6863 43.551C22.8496 43.1077 23.0083 42.69 23.1623 42.298C23.321 41.906 23.475 41.535 23.6243 41.185C23.7783 40.8303 23.937 40.485 24.1003 40.149H25.1433C25.302 40.485 25.4583 40.8303 25.6123 41.185C25.7663 41.535 25.9203 41.906 26.0743 42.298C26.233 42.69 26.394 43.1077 26.5573 43.551C26.7206 43.9943 26.8933 44.4773 27.0753 45H25.9063ZM24.5973 41.248C24.574 41.318 24.539 41.4137 24.4923 41.535C24.4456 41.6563 24.392 41.7963 24.3313 41.955C24.2706 42.1137 24.203 42.2887 24.1283 42.48C24.0583 42.6713 23.986 42.872 23.9113 43.082H25.2903C25.2156 42.872 25.1433 42.6713 25.0733 42.48C25.0033 42.2887 24.9356 42.1137 24.8703 41.955C24.8096 41.7963 24.756 41.6563 24.7093 41.535C24.6626 41.4137 24.6253 41.318 24.5973 41.248ZM32.197 40.149V41.08H30.734V45H29.642V41.08H28.179V40.149H32.197ZM34.3688 45V40.149H37.6448V41.066H35.4608V42.018H37.3998V42.914H35.4608V44.083H37.8058V45H34.3688ZM41.7009 45.063C41.4349 45.063 41.1689 45.0537 40.9029 45.035C40.6416 45.021 40.3686 44.9837 40.0839 44.923V40.219C40.3079 40.177 40.5529 40.1467 40.8189 40.128C41.0849 40.1047 41.3323 40.093 41.5609 40.093C41.8689 40.093 42.1513 40.1163 42.4079 40.163C42.6693 40.205 42.8933 40.2797 43.0799 40.387C43.2666 40.4943 43.4113 40.6367 43.5139 40.814C43.6213 40.9867 43.6749 41.2013 43.6749 41.458C43.6749 41.8453 43.4883 42.151 43.1149 42.375C43.4229 42.4917 43.6329 42.6503 43.7449 42.851C43.8569 43.0517 43.9129 43.278 43.9129 43.53C43.9129 44.0387 43.7263 44.4213 43.3529 44.678C42.9843 44.9347 42.4336 45.063 41.7009 45.063ZM41.1479 42.886V44.139C41.2273 44.1483 41.3136 44.1553 41.4069 44.16C41.5003 44.1647 41.6029 44.167 41.7149 44.167C42.0416 44.167 42.3053 44.1203 42.5059 44.027C42.7066 43.9337 42.8069 43.761 42.8069 43.509C42.8069 43.285 42.7229 43.1263 42.5549 43.033C42.3869 42.935 42.1466 42.886 41.8339 42.886H41.1479ZM41.1479 42.053H41.6799C42.0159 42.053 42.2563 42.011 42.4009 41.927C42.5456 41.8383 42.6179 41.6983 42.6179 41.507C42.6179 41.311 42.5433 41.1733 42.3939 41.094C42.2446 41.0147 42.0253 40.975 41.7359 40.975C41.6426 40.975 41.5423 40.9773 41.4349 40.982C41.3276 40.982 41.2319 40.9867 41.1479 40.996V42.053ZM47.1741 42.571C47.1741 42.809 47.2021 43.0237 47.2581 43.215C47.3187 43.4063 47.4027 43.572 47.5101 43.712C47.6221 43.8473 47.7574 43.9523 47.9161 44.027C48.0747 44.1017 48.2567 44.139 48.4621 44.139C48.6627 44.139 48.8424 44.1017 49.0011 44.027C49.1644 43.9523 49.2997 43.8473 49.4071 43.712C49.5191 43.572 49.6031 43.4063 49.6591 43.215C49.7197 43.0237 49.7501 42.809 49.7501 42.571C49.7501 42.333 49.7197 42.1183 49.6591 41.927C49.6031 41.731 49.5191 41.5653 49.4071 41.43C49.2997 41.29 49.1644 41.1827 49.0011 41.108C48.8424 41.0333 48.6627 40.996 48.4621 40.996C48.2567 40.996 48.0747 41.0357 47.9161 41.115C47.7574 41.1897 47.6221 41.297 47.5101 41.437C47.4027 41.5723 47.3187 41.738 47.2581 41.934C47.2021 42.1253 47.1741 42.3377 47.1741 42.571ZM50.8771 42.571C50.8771 42.9863 50.8141 43.3527 50.6881 43.67C50.5667 43.9827 50.3987 44.2463 50.1841 44.461C49.9694 44.671 49.7127 44.8297 49.4141 44.937C49.1201 45.0443 48.8027 45.098 48.4621 45.098C48.1307 45.098 47.8181 45.0443 47.5241 44.937C47.2301 44.8297 46.9734 44.671 46.7541 44.461C46.5347 44.2463 46.3621 43.9827 46.2361 43.67C46.1101 43.3527 46.0471 42.9863 46.0471 42.571C46.0471 42.1557 46.1124 41.7917 46.2431 41.479C46.3737 41.1617 46.5487 40.8957 46.7681 40.681C46.9921 40.4663 47.2487 40.3053 47.5381 40.198C47.8321 40.0907 48.1401 40.037 48.4621 40.037C48.7934 40.037 49.1061 40.0907 49.4001 40.198C49.6941 40.3053 49.9507 40.4663 50.1701 40.681C50.3894 40.8957 50.5621 41.1617 50.6881 41.479C50.8141 41.7917 50.8771 42.1557 50.8771 42.571ZM56.3276 45C56.2763 44.832 56.2179 44.6593 56.1526 44.482C56.0919 44.3047 56.0313 44.1273 55.9706 43.95H54.0806C54.0199 44.1273 53.9569 44.3047 53.8916 44.482C53.8309 44.6593 53.7749 44.832 53.7236 45H52.5896C52.7716 44.4773 52.9443 43.9943 53.1076 43.551C53.2709 43.1077 53.4296 42.69 53.5836 42.298C53.7423 41.906 53.8963 41.535 54.0456 41.185C54.1996 40.8303 54.3583 40.485 54.5216 40.149H55.5646C55.7233 40.485 55.8796 40.8303 56.0336 41.185C56.1876 41.535 56.3416 41.906 56.4956 42.298C56.6543 42.69 56.8153 43.1077 56.9786 43.551C57.1419 43.9943 57.3146 44.4773 57.4966 45H56.3276ZM55.0186 41.248C54.9953 41.318 54.9603 41.4137 54.9136 41.535C54.8669 41.6563 54.8133 41.7963 54.7526 41.955C54.6919 42.1137 54.6243 42.2887 54.5496 42.48C54.4796 42.6713 54.4073 42.872 54.3326 43.082H55.7116C55.6369 42.872 55.5646 42.6713 55.4946 42.48C55.4246 42.2887 55.3569 42.1137 55.2916 41.955C55.2309 41.7963 55.1773 41.6563 55.1306 41.535C55.0839 41.4137 55.0466 41.318 55.0186 41.248ZM61.0155 40.093C61.7435 40.093 62.3012 40.2237 62.6885 40.485C63.0758 40.7417 63.2695 41.143 63.2695 41.689C63.2695 42.0297 63.1902 42.3073 63.0315 42.522C62.8775 42.732 62.6535 42.8977 62.3595 43.019C62.4575 43.1403 62.5602 43.2803 62.6675 43.439C62.7748 43.593 62.8798 43.7563 62.9825 43.929C63.0898 44.097 63.1925 44.2743 63.2905 44.461C63.3885 44.643 63.4795 44.8227 63.5635 45H62.3385C62.2498 44.8413 62.1588 44.6803 62.0655 44.517C61.9768 44.3537 61.8835 44.195 61.7855 44.041C61.6922 43.887 61.5988 43.7423 61.5055 43.607C61.4122 43.467 61.3188 43.341 61.2255 43.229H60.6865V45H59.5945V40.219C59.8325 40.1723 60.0775 40.1397 60.3295 40.121C60.5862 40.1023 60.8148 40.093 61.0155 40.093ZM61.0785 41.024C60.9992 41.024 60.9268 41.0263 60.8615 41.031C60.8008 41.0357 60.7425 41.0403 60.6865 41.045V42.361H60.9945C61.4052 42.361 61.6992 42.3097 61.8765 42.207C62.0538 42.1043 62.1425 41.9293 62.1425 41.682C62.1425 41.444 62.0515 41.276 61.8695 41.178C61.6922 41.0753 61.4285 41.024 61.0785 41.024ZM66.8255 44.111C66.8768 44.1157 66.9351 44.1203 67.0005 44.125C67.0705 44.125 67.1521 44.125 67.2455 44.125C67.7915 44.125 68.1951 43.9873 68.4565 43.712C68.7225 43.4367 68.8555 43.0563 68.8555 42.571C68.8555 42.0623 68.7295 41.6773 68.4775 41.416C68.2255 41.1547 67.8265 41.024 67.2805 41.024C67.2058 41.024 67.1288 41.0263 67.0495 41.031C66.9701 41.031 66.8955 41.0357 66.8255 41.045V44.111ZM69.9825 42.571C69.9825 42.991 69.9171 43.3573 69.7865 43.67C69.6558 43.9827 69.4691 44.2417 69.2265 44.447C68.9885 44.6523 68.6968 44.8063 68.3515 44.909C68.0061 45.0117 67.6188 45.063 67.1895 45.063C66.9935 45.063 66.7648 45.0537 66.5035 45.035C66.2421 45.021 65.9855 44.9883 65.7335 44.937V40.212C65.9855 40.1653 66.2468 40.135 66.5175 40.121C66.7928 40.1023 67.0285 40.093 67.2245 40.093C67.6398 40.093 68.0155 40.1397 68.3515 40.233C68.6921 40.3263 68.9838 40.4733 69.2265 40.674C69.4691 40.8747 69.6558 41.1313 69.7865 41.444C69.9171 41.7567 69.9825 42.1323 69.9825 42.571ZM73.6876 44.167C73.8416 44.167 73.9676 44.1553 74.0656 44.132C74.1683 44.104 74.2499 44.069 74.3106 44.027C74.3713 43.9803 74.4133 43.9267 74.4366 43.866C74.4599 43.8053 74.4716 43.7377 74.4716 43.663C74.4716 43.5043 74.3969 43.3737 74.2476 43.271C74.0983 43.1637 73.8416 43.0493 73.4776 42.928C73.3189 42.872 73.1603 42.809 73.0016 42.739C72.8429 42.6643 72.7006 42.5733 72.5746 42.466C72.4486 42.354 72.3459 42.221 72.2666 42.067C72.1873 41.9083 72.1476 41.717 72.1476 41.493C72.1476 41.269 72.1896 41.0683 72.2736 40.891C72.3576 40.709 72.4766 40.555 72.6306 40.429C72.7846 40.303 72.9713 40.2073 73.1906 40.142C73.4099 40.072 73.6573 40.037 73.9326 40.037C74.2593 40.037 74.5416 40.072 74.7796 40.142C75.0176 40.212 75.2136 40.289 75.3676 40.373L75.0526 41.234C74.9173 41.164 74.7656 41.1033 74.5976 41.052C74.4343 40.996 74.2359 40.968 74.0026 40.968C73.7413 40.968 73.5523 41.0053 73.4356 41.08C73.3236 41.15 73.2676 41.2597 73.2676 41.409C73.2676 41.4977 73.2886 41.5723 73.3306 41.633C73.3726 41.6937 73.4309 41.7497 73.5056 41.801C73.5849 41.8477 73.6736 41.892 73.7716 41.934C73.8743 41.9713 73.9863 42.011 74.1076 42.053C74.3596 42.1463 74.5789 42.2397 74.7656 42.333C74.9523 42.4217 75.1063 42.5267 75.2276 42.648C75.3536 42.7693 75.4469 42.9117 75.5076 43.075C75.5683 43.2383 75.5986 43.4367 75.5986 43.67C75.5986 44.1227 75.4399 44.475 75.1226 44.727C74.8053 44.9743 74.3269 45.098 73.6876 45.098C73.4729 45.098 73.2793 45.084 73.1066 45.056C72.9339 45.0327 72.7799 45.0023 72.6446 44.965C72.5139 44.9277 72.3996 44.888 72.3016 44.846C72.2083 44.804 72.1289 44.7643 72.0636 44.727L72.3716 43.859C72.5163 43.9383 72.6936 44.0107 72.9036 44.076C73.1183 44.1367 73.3796 44.167 73.6876 44.167Z" fill="white"/>
</svg>
